<svg width="700" height="700" viewBox="0 0 700 700" fill="none" xmlns="http://www.w3.org/2000/svg">
<rect x="105.5" y="27.9381" width="489" height="644.124" rx="35" stroke="black" stroke-width="20"/>
<mask id="path-2-inside-1_94_5" fill="white">
<path fill-rule="evenodd" clip-rule="evenodd" d="M242.502 65.1528L167.715 65.1528C153.907 65.1528 142.715 76.3456 142.715 90.1528V164.94H172.715V95.1528H242.502V65.1528ZM242.502 604.847H172.715V535.06H142.715V609.847C142.715 623.654 153.907 634.847 167.715 634.847H242.502V604.847ZM457.498 634.847V604.847H527.285V535.06H557.285V609.847C557.285 623.654 546.092 634.847 532.285 634.847H457.498ZM457.498 95.1528V65.1528H532.285C546.092 65.1528 557.285 76.3457 557.285 90.1528V164.94H527.285V95.1528H457.498Z"/>
</mask>
<path fill-rule="evenodd" clip-rule="evenodd" d="M242.502 65.1528L167.715 65.1528C153.907 65.1528 142.715 76.3456 142.715 90.1528V164.94H172.715V95.1528H242.502V65.1528ZM242.502 604.847H172.715V535.06H142.715V609.847C142.715 623.654 153.907 634.847 167.715 634.847H242.502V604.847ZM457.498 634.847V604.847H527.285V535.06H557.285V609.847C557.285 623.654 546.092 634.847 532.285 634.847H457.498ZM457.498 95.1528V65.1528H532.285C546.092 65.1528 557.285 76.3457 557.285 90.1528V164.94H527.285V95.1528H457.498Z" fill="black"/>
<path d="M242.502 65.1528H243.502V64.1528H242.502V65.1528ZM142.715 164.94H141.715V165.94H142.715V164.94ZM172.715 164.94V165.94H173.715V164.94H172.715ZM172.715 95.1528V94.1528H171.715V95.1528H172.715ZM242.502 95.1528V96.1528H243.502V95.1528H242.502ZM242.502 604.847H243.502V603.847H242.502V604.847ZM172.715 604.847H171.715V605.847H172.715V604.847ZM172.715 535.06H173.715V534.06H172.715V535.06ZM142.715 535.06V534.06H141.715V535.06H142.715ZM242.502 634.847V635.847H243.502V634.847H242.502ZM457.498 604.847V603.847H456.498V604.847H457.498ZM457.498 634.847H456.498V635.847H457.498V634.847ZM527.285 604.847V605.847H528.285V604.847H527.285ZM527.285 535.06V534.06H526.285V535.06H527.285ZM557.285 535.06H558.285V534.06H557.285V535.06ZM457.498 65.1528V64.1528H456.498V65.1528H457.498ZM457.498 95.1528H456.498V96.1528H457.498V95.1528ZM557.285 164.94V165.94H558.285V164.94H557.285ZM527.285 164.94H526.285V165.94H527.285V164.94ZM527.285 95.1528H528.285V94.1528H527.285V95.1528ZM242.502 64.1528L167.715 64.1528V66.1528L242.502 66.1528V64.1528ZM167.715 64.1528C153.355 64.1528 141.715 75.7934 141.715 90.1528H143.715C143.715 76.8979 154.46 66.1528 167.715 66.1528V64.1528ZM141.715 90.1528V164.94H143.715V90.1528H141.715ZM142.715 165.94H172.715V163.94H142.715V165.94ZM173.715 164.94V95.1528H171.715V164.94H173.715ZM172.715 96.1528H242.502V94.1528H172.715V96.1528ZM243.502 95.1528V65.1528H241.502V95.1528H243.502ZM242.502 603.847H172.715V605.847H242.502V603.847ZM173.715 604.847V535.06H171.715V604.847H173.715ZM172.715 534.06H142.715V536.06H172.715V534.06ZM141.715 535.06V609.847H143.715V535.06H141.715ZM141.715 609.847C141.715 624.207 153.355 635.847 167.715 635.847V633.847C154.46 633.847 143.715 623.102 143.715 609.847H141.715ZM167.715 635.847H242.502V633.847H167.715V635.847ZM243.502 634.847V604.847H241.502V634.847H243.502ZM456.498 604.847V634.847H458.498V604.847H456.498ZM527.285 603.847H457.498V605.847H527.285V603.847ZM526.285 535.06V604.847H528.285V535.06H526.285ZM557.285 534.06H527.285V536.06H557.285V534.06ZM558.285 609.847V535.06H556.285V609.847H558.285ZM532.285 635.847C546.645 635.847 558.285 624.207 558.285 609.847H556.285C556.285 623.102 545.54 633.847 532.285 633.847V635.847ZM457.498 635.847H532.285V633.847H457.498V635.847ZM456.498 65.1528V95.1528H458.498V65.1528H456.498ZM532.285 64.1528H457.498V66.1528H532.285V64.1528ZM558.285 90.1528C558.285 75.7934 546.645 64.1528 532.285 64.1528V66.1528C545.54 66.1528 556.285 76.898 556.285 90.1528H558.285ZM558.285 164.94V90.1528H556.285V164.94H558.285ZM527.285 165.94H557.285V163.94H527.285V165.94ZM526.285 95.1528V164.94H528.285V95.1528H526.285ZM457.498 96.1528H527.285V94.1528H457.498V96.1528Z" fill="black" mask="url(#path-2-inside-1_94_5)"/>
</svg>
